# xmcd
#
# Track frame offsets: 
#        150
#        11983
#        22590
#        32311
#        44810
#        61390
#        73164
#        90083
#        102188
#        114721
#        130057
#        143632
#        157567
#        177033
#
# Disc length: 2525 seconds
#
# Revision: 0
# Processed by: cddbd v1.5.2PL0 Copyright (c) Steve Scherf et al.
# Submitted via: ExactAudioCopy v0.99pb5
#
DISCID=a509db0e
DTITLE=The Seldom Scene - Different Roads
DYEAR=2007
DGENRE=Bluegrass
TTITLE0=Different Roads
TTITLE1=Old Train
TTITLE2=Walk Through This World With Me
TTITLE3=Gardens And Memories
TTITLE4=Wait A Minute
TTITLE5=Rebels 'Ye Rest
TTITLE6=Last Train From Poor Valley
TTITLE7=I've Lost You
TTITLE8=Keep Me From Blowin' Away
TTITLE9=Reason For Being
TTITLE10=If That's The Way You Feel
TTITLE11=Easy Ride From Good Times To The Blues
TTITLE12=Pictures From Life's Other Side
TTITLE13=Pan American
EXTD=
EXTT0=
EXTT1=
EXTT2=
EXTT3=
EXTT4=
EXTT5=
EXTT6=
EXTT7=
EXTT8=
EXTT9=
EXTT10=
EXTT11=
EXTT12=
EXTT13=
PLAYORDER=
